# 3ds Max Wavefront OBJ Exporter v0.97b - (c)2007 guruware
# 创建的文件:30.11.2011 15:50:52

mtllib 001.mtl

#
# object ms_002
#

v  351.9242 266.7206 -71.8181
v  351.9242 149.5251 -71.8181
v  -352.6041 149.5251 -71.8181
v  -352.6041 266.7206 -71.8181
v  63.4011 86.0692 -78.7667
v  -53.1677 86.0692 -78.7667
v  -53.1677 119.2320 -78.7667
v  63.4011 119.2320 -78.7667
v  -53.1677 119.2320 -77.8562
v  -53.1677 86.0692 -77.8562
v  63.4011 86.0692 -77.8562
v  63.4011 119.2320 -77.8562
v  -348.4561 113.5834 -78.7667
v  -282.9363 113.5834 -78.7667
v  -282.9363 90.4517 -78.7667
v  -348.4561 90.4517 -78.7667
v  -282.9363 90.4517 -77.8562
v  -282.9363 113.5834 -77.8562
v  -348.4561 113.5834 -77.8562
v  -348.4561 90.4517 -77.8562
# 20 vertices

vn 0.0000 0.0000 -1.0000
vn -1.0000 0.0000 -0.0000
vn 0.0000 0.0000 1.0000
vn 0.0000 -1.0000 -0.0000
vn 0.0000 1.0000 -0.0000
vn 1.0000 0.0000 -0.0000
vn 0.0000 1.0000 0.0000
# 7 vertex normals

vt 0.0021 0.9893 0.0000
vt 0.0020 0.2969 0.0000
vt 0.9979 0.2946 0.0000
vt 0.9979 0.9870 0.0000
vt 0.0109 0.0303 0.0000
vt 0.2331 0.0304 0.0000
vt 0.2331 0.2860 0.0000
vt 0.0110 0.2870 0.0000
vt 0.2349 0.2859 0.0000
vt 0.2349 0.0304 0.0000
vt 0.0109 0.0232 0.0000
vt 0.2331 0.0234 0.0000
vt 0.2321 0.2761 0.0000
vt 0.0099 0.2771 0.0000
vt 0.0081 0.0134 0.0000
vt 0.0081 0.2699 0.0000
vt 0.3760 0.2828 0.0000
vt 0.2547 0.2828 0.0000
vt 0.2547 0.0904 0.0000
vt 0.3760 0.0904 0.0000
vt 0.2532 0.0929 0.0000
vt 0.2532 0.2805 0.0000
vt 0.3750 0.2768 0.0000
vt 0.2542 0.2768 0.0000
vt 0.2549 0.0838 0.0000
vt 0.3757 0.0839 0.0000
vt 0.3767 0.2678 0.0000
vt 0.3767 0.0802 0.0000
# 28 texture coords

g ms_002
usemtl 03___Default
s off
f 1/1/1 2/2/1 3/3/1 4/4/1 
f 5/5/2 6/6/2 7/7/2 8/8/2 
f 9/9/3 7/7/3 6/6/3 10/10/3 
f 6/6/4 5/5/4 11/11/4 10/12/4 
f 8/8/5 7/7/5 9/13/5 12/14/5 
f 11/15/1 5/5/1 8/8/1 12/16/1 
f 13/17/1 14/18/1 15/19/1 16/20/1 
f 17/21/6 15/19/6 14/18/6 18/22/6 
f 14/18/7 13/17/7 19/23/7 18/24/7 
f 16/20/4 15/19/4 17/25/4 20/26/4 
f 19/27/2 13/17/2 16/20/2 20/28/2 
# 11 polygons

#
# object ms_001
#

v  298.0729 474.3319 -20.5551
v  298.0729 390.6942 -20.5551
v  298.0729 390.6942 15.0213
v  298.0729 474.3319 15.0213
v  331.9802 474.3319 -20.5551
v  331.9802 474.3319 15.0213
v  331.9802 390.6942 -20.5551
v  331.9802 390.6942 15.0213
v  -327.8464 474.3319 -20.5551
v  -327.8464 390.6942 -20.5551
v  -327.8464 390.6942 15.0213
v  -327.8464 474.3319 15.0213
v  -293.9390 474.3319 -20.5551
v  -293.9390 474.3319 15.0213
v  -293.9390 390.6942 -20.5551
v  -293.9390 390.6942 15.0213
v  -366.9197 278.3195 -80.8728
v  -366.9197 137.9262 -80.8728
v  -366.9197 137.9262 78.1360
v  -366.9197 278.3195 78.1360
v  366.2398 137.9262 -80.8728
v  366.2398 278.3195 -80.8728
v  366.2398 278.3195 78.1360
v  366.2398 137.9262 78.1360
v  -372.3196 278.4659 -82.8174
v  -372.3196 278.4659 80.0805
v  371.6396 278.4659 80.0805
v  371.6396 278.4659 -82.8174
v  -372.3196 286.8499 -82.8174
v  -372.3196 286.8499 80.0805
v  371.6396 286.8499 80.0805
v  371.6396 286.8499 -82.8174
v  -379.0104 287.0519 -85.6686
v  -379.0104 287.0519 82.9318
v  378.3305 287.0519 82.9318
v  378.3305 287.0519 -85.6686
v  -379.0104 294.6221 -85.6686
v  -379.0104 294.6221 82.9318
v  378.3305 294.6221 82.9318
v  378.3305 294.6221 -85.6686
v  -386.7551 294.7833 -88.6306
v  -386.7551 294.7833 85.8938
v  386.0752 294.7833 85.8938
v  386.0752 294.7833 -88.6306
v  -386.7551 304.7964 -88.6306
v  -386.7551 304.7964 85.8938
v  386.0752 304.7964 85.8938
v  386.0752 304.7964 -88.6306
v  -409.4208 304.2874 -97.9749
v  -409.4208 304.2874 95.2379
v  408.7409 304.2874 95.2379
v  408.7409 304.2874 -97.9749
v  -409.4208 338.0960 -97.9749
v  -409.4208 338.0960 95.2379
v  408.7409 338.0960 95.2379
v  408.7409 338.0960 -97.9749
v  -378.0986 137.9262 82.7766
v  -378.0986 137.9262 -85.5134
v  377.4188 137.9262 -85.5134
v  377.4188 137.9262 82.7766
v  -378.0986 128.1327 82.7766
v  -378.0986 128.1327 -85.5134
v  377.4188 128.1327 -85.5134
v  377.4188 128.1327 82.7766
v  -360.3889 119.5612 75.6254
v  -360.3889 119.5612 -78.3622
v  359.7090 119.5612 -78.3622
v  359.7090 119.5612 75.6254
v  -360.3889 85.5167 75.6254
v  -360.3889 85.5167 -78.3622
v  -380.1417 74.5959 83.7692
v  -380.1417 74.5959 -86.5060
v  379.4618 74.5959 -86.5061
v  359.7090 85.5167 -78.3622
v  359.7090 85.5167 75.6254
v  379.4618 74.5959 83.7692
v  -380.1417 49.0537 83.7692
v  -380.1417 49.0537 -86.5060
v  379.4618 49.0537 -86.5061
v  379.4618 49.0537 83.7692
v  -390.5295 49.0537 87.5198
v  -390.5295 49.0537 -90.2567
v  389.8495 49.0537 -90.2567
v  389.8495 49.0537 87.5198
v  -390.5295 0.3597 87.5198
v  -390.5295 0.3597 -90.2567
v  389.8495 0.3597 -90.2567
v  389.8495 0.3597 87.5198
v  -372.5269 338.0960 -75.3610
v  -372.5269 338.0960 72.6242
v  371.8470 338.0960 72.6242
v  371.8470 338.0960 -75.3610
v  -334.4983 402.2533 -51.3844
v  -334.4983 402.2533 48.6476
v  333.8183 402.2533 48.6476
v  333.8183 402.2533 -51.3844
v  355.6557 146.3130 -80.8728
v  -356.3356 146.3130 -80.8728
v  -356.3356 269.9327 -80.8728
v  355.6557 269.9327 -80.8728
v  -354.4705 147.8154 -75.7838
v  353.7905 147.8154 -75.7838
v  -354.4705 268.4303 -75.7838
v  353.7905 268.4303 -75.7838
v  351.9241 149.5251 -75.6435
v  351.9242 149.5251 -71.8185
v  351.9242 266.7206 -71.8185
v  351.9241 266.7206 -75.6435
v  -352.6039 266.7206 -75.6434
v  -352.6041 266.7206 -71.8185
v  -352.6039 149.5251 -75.6434
v  -352.6041 149.5251 -71.8185
# 112 vertices

vn -1.0000 0.0000 -0.0000
vn 0.0000 1.0000 -0.0000
vn 1.0000 0.0000 -0.0000
vn 0.0000 0.0000 1.0000
vn 0.0000 0.0000 -1.0000
vn -0.0211 -0.9996 -0.0166
vn -0.0110 -0.9989 -0.0446
vn -0.0110 -0.9989 0.0446
vn -0.0211 -0.9996 0.0166
vn 0.0211 -0.9996 0.0166
vn 0.0110 -0.9989 0.0446
vn 0.0110 -0.9989 -0.0446
vn 0.0211 -0.9996 -0.0166
vn -0.0224 -0.9996 -0.0182
vn -0.0127 -0.9991 -0.0411
vn -0.0127 -0.9991 0.0411
vn -0.0224 -0.9996 0.0182
vn 0.0224 -0.9996 0.0182
vn 0.0127 -0.9991 0.0411
vn 0.0127 -0.9991 -0.0411
vn 0.0224 -0.9996 -0.0182
vn -0.0208 -0.9998 -0.0000
vn 0.0208 -0.9998 -0.0000
vn 0.0000 -0.9985 -0.0543
vn 0.0000 -0.9985 0.0543
vn 0.0225 -0.9997 -0.0000
vn -0.0224 -0.9997 -0.0000
vn 0.0000 -0.9985 0.0544
vn 0.0000 -0.9985 -0.0544
vn -0.4357 -0.9001 -0.0000
vn 0.4357 -0.9001 -0.0000
vn 0.0000 -0.6406 -0.7679
vn 0.0000 -0.6406 0.7679
vn -0.4838 0.8752 -0.0000
vn 0.4838 0.8752 -0.0000
vn -0.0000 0.5978 -0.8016
vn 0.0000 0.5978 0.8016
vn -0.0000 0.0000 -1.0000
vn -0.8602 0.5099 -0.0000
vn 0.8602 0.5099 -0.0000
vn 0.0000 0.3501 -0.9367
vn 0.0000 0.3501 0.9367
vn 0.0000 0.9591 -0.2831
vn 0.9389 0.0000 -0.3441
vn 0.0000 -0.9591 -0.2831
vn -0.9389 0.0000 -0.3441
vn -1.0000 0.0000 0.0000
vn -0.0368 -0.0417 -0.9984
vn -0.0396 -0.0387 -0.9985
vn -0.0396 0.0387 -0.9985
vn -0.0368 0.0417 -0.9984
vn 0.0369 -0.0417 -0.9984
vn 0.0397 -0.0387 -0.9985
vn 0.0000 -1.0000 -0.0000
vn 0.0369 0.0417 -0.9984
vn 0.0397 0.0387 -0.9985
vn 1.0000 0.0000 0.0000
# 57 vertex normals

vt 0.9914 0.2219 0.0000
vt 0.9912 0.4124 0.0000
vt 0.9102 0.4123 0.0000
vt 0.9104 0.2218 0.0000
vt 1.0686 0.2220 0.0000
vt 0.9915 0.1409 0.0000
vt 1.0687 0.1410 0.0000
vt 1.0684 0.4125 0.0000
vt 1.1496 0.2221 0.0000
vt 1.1494 0.4126 0.0000
vt 1.2268 0.2222 0.0000
vt 1.2266 0.4126 0.0000
vt 0.9914 0.2217 0.0000
vt 0.9912 0.4122 0.0000
vt 0.9102 0.4121 0.0000
vt 0.9104 0.2216 0.0000
vt 1.0686 0.2218 0.0000
vt 0.9915 0.1407 0.0000
vt 1.0687 0.1408 0.0000
vt 1.0684 0.4123 0.0000
vt 1.1497 0.2219 0.0000
vt 1.1495 0.4123 0.0000
vt 1.2269 0.2220 0.0000
vt 1.2267 0.4124 0.0000
vt 0.0848 0.5768 0.0000
vt 0.0848 0.0040 0.0000
vt 0.7335 0.0040 0.0000
vt 0.7335 0.5768 0.0000
vt -0.1966 0.5768 0.0000
vt -0.1966 0.0040 0.0000
vt 2.5977 0.0040 0.0000
vt 2.5977 0.5768 0.0000
vt 0.0768 0.5988 0.0000
vt 0.7414 0.5988 0.0000
vt -0.2045 0.5988 0.0000
vt 2.6056 0.5988 0.0000
vt 0.0768 0.6331 0.0000
vt 0.7414 0.6331 0.0000
vt -0.2045 0.6331 0.0000
vt 2.6056 0.6331 0.0000
vt 0.0652 0.6604 0.0000
vt 0.7531 0.6604 0.0000
vt -0.2162 0.6604 0.0000
vt 2.6172 0.6604 0.0000
vt 0.0652 0.6913 0.0000
vt 0.7531 0.6913 0.0000
vt -0.2162 0.6913 0.0000
vt 2.6172 0.6913 0.0000
vt 0.0531 0.7229 0.0000
vt 0.7652 0.7229 0.0000
vt -0.2282 0.7229 0.0000
vt 2.6293 0.7229 0.0000
vt 0.0531 0.7637 0.0000
vt 0.7652 0.7637 0.0000
vt -0.2282 0.7637 0.0000
vt 2.6293 0.7637 0.0000
vt 0.0150 0.8562 0.0000
vt 0.8033 0.8562 0.0000
vt -0.2664 0.8562 0.0000
vt 2.6674 0.8562 0.0000
vt 0.0150 0.9941 0.0000
vt 0.8033 0.9941 0.0000
vt -0.2664 0.9941 0.0000
vt 2.6674 0.9941 0.0000
vt 2.3441 0.8250 0.0000
vt 2.3251 0.8706 0.0000
vt 1.6764 0.8706 0.0000
vt 1.6575 0.8250 0.0000
vt 4.2082 0.8250 0.0000
vt 4.1893 0.8706 0.0000
vt 1.3950 0.8706 0.0000
vt 1.3761 0.8250 0.0000
vt 2.3441 0.7851 0.0000
vt 1.6575 0.7851 0.0000
vt 4.2082 0.7851 0.0000
vt 1.3761 0.7851 0.0000
vt 2.3149 0.7048 0.0000
vt 1.6866 0.7048 0.0000
vt 4.1790 0.7048 0.0000
vt 1.4053 0.7048 0.0000
vt 2.3149 0.5659 0.0000
vt 1.6866 0.5659 0.0000
vt 2.3481 0.4738 0.0000
vt 1.6534 0.4738 0.0000
vt 4.2123 0.4738 0.0000
vt 4.1790 0.5659 0.0000
vt 1.4053 0.5659 0.0000
vt 1.3720 0.4738 0.0000
vt 2.3481 0.3696 0.0000
vt 1.6534 0.3696 0.0000
vt 4.2123 0.3696 0.0000
vt 1.3720 0.3696 0.0000
vt 2.3634 0.3272 0.0000
vt 1.6381 0.3272 0.0000
vt 4.2276 0.3272 0.0000
vt 1.3567 0.3272 0.0000
vt 2.3634 0.1286 0.0000
vt 1.6381 0.1286 0.0000
vt 4.2276 0.1286 0.0000
vt 1.3567 0.1286 0.0000
vt 3.1558 0.2386 0.0000
vt 3.2839 0.1601 0.0000
vt 3.2838 0.8307 0.0000
vt 3.1558 0.7522 0.0000
vt 0.3185 0.7521 0.0000
vt 0.1905 0.8306 0.0000
vt 0.1905 0.1600 0.0000
vt 0.3186 0.2385 0.0000
vt 0.4454 0.0840 0.0000
vt 0.3174 0.0055 0.0000
vt 3.1570 0.0056 0.0000
vt 3.0290 0.0841 0.0000
vt 3.0289 0.9067 0.0000
vt 3.1570 0.9852 0.0000
vt 0.3173 0.9851 0.0000
vt 0.4454 0.9066 0.0000
vt 2.8970 0.3218 0.0000
vt 2.8969 0.6690 0.0000
vt 0.5774 0.6689 0.0000
vt 0.5774 0.3217 0.0000
vt -0.1613 0.0326 0.0000
vt 2.5625 0.0327 0.0000
vt 2.5623 0.5482 0.0000
vt -0.1615 0.5481 0.0000
vt 2.5488 0.0524 0.0000
vt -0.1477 0.0524 0.0000
vt 2.5487 0.5285 0.0000
vt -0.1477 0.5285 0.0000
vt -0.1384 0.0621 0.0000
vt -0.1260 0.0887 0.0000
vt -0.1261 0.4921 0.0000
vt -0.1382 0.5188 0.0000
vt 2.5394 0.5187 0.0000
vt 2.5272 0.4922 0.0000
vt 2.5393 0.0621 0.0000
vt 2.5271 0.0887 0.0000
# 136 texture coords

g ms_001
usemtl mt_001
s off
f 21/29/8 22/30/8 23/31/8 24/32/8 
f 25/33/9 21/29/9 24/34/9 26/35/9 
f 27/36/10 25/33/10 26/37/10 28/38/10 
f 24/39/11 23/40/11 28/38/11 26/37/11 
f 25/33/12 27/36/12 22/30/12 21/29/12 
f 29/41/8 30/42/8 31/43/8 32/44/8 
f 33/45/9 29/41/9 32/46/9 34/47/9 
f 35/48/10 33/45/10 34/49/10 36/50/10 
f 32/51/11 31/52/11 36/50/11 34/49/11 
f 33/45/12 35/48/12 30/42/12 29/41/12 
f 37/53/8 38/54/8 39/55/8 40/56/8 
f 41/55/10 42/56/10 43/53/10 44/54/10 
f 40/57/11 39/58/11 44/59/11 43/60/11 
s 5
f 45/61/13 37/53/14 40/56/15 46/62/16 
f 47/61/17 43/53/18 42/56/19 48/62/20 
f 48/63/20 42/57/19 37/60/14 45/64/13 
f 46/63/16 40/57/15 43/60/18 47/64/17 
s off
f 49/65/8 45/61/8 46/62/8 50/66/8 
f 51/65/10 47/61/10 48/62/10 52/66/10 
f 52/67/12 48/63/12 45/64/12 49/68/12 
f 50/67/11 46/63/11 47/64/11 51/68/11 
s 10
f 53/69/21 49/65/22 50/66/23 54/70/24 
f 55/69/25 51/65/26 52/66/27 56/70/28 
f 56/71/28 52/67/27 49/68/22 53/72/21 
f 54/71/24 50/67/23 51/68/26 55/72/25 
s off
f 57/73/8 53/69/8 54/70/8 58/74/8 
f 59/73/10 55/69/10 56/70/10 60/74/10 
f 60/75/12 56/71/12 53/72/12 57/76/12 
f 58/75/11 54/71/11 55/72/11 59/76/11 
f 61/77/29 57/73/29 58/74/29 62/78/29 
f 63/77/30 59/73/30 60/74/30 64/78/30 
f 64/79/31 60/75/31 57/76/31 61/80/31 
f 62/79/32 58/75/32 59/76/32 63/80/32 
f 65/81/8 61/77/8 62/78/8 66/82/8 
f 67/81/10 63/77/10 64/78/10 68/82/10 
f 68/83/12 64/79/12 61/80/12 65/84/12 
f 66/83/11 62/79/11 63/80/11 67/84/11 
f 69/85/33 65/81/33 66/82/33 70/86/33 
f 71/85/34 67/81/34 68/82/34 72/86/34 
f 72/87/35 68/83/35 65/84/35 69/88/35 
f 70/87/36 66/83/36 67/84/36 71/88/36 
f 73/89/8 69/85/8 70/86/8 74/90/8 
f 75/89/10 71/85/10 72/86/10 76/90/10 
f 76/91/12 72/87/12 69/88/12 73/92/12 
f 74/91/11 70/87/11 71/88/11 75/92/11 
f 77/93/9 39/94/9 38/95/9 78/96/9 
f 79/93/9 41/94/9 44/95/9 80/96/9 
f 78/97/9 38/98/9 41/99/9 79/100/9 
f 80/97/9 44/98/9 39/99/9 77/100/9 
f 81/101/8 77/93/8 78/96/8 82/102/8 
f 83/101/10 79/93/10 80/96/10 84/102/10 
f 82/103/12 78/97/12 79/100/12 83/104/12 
f 84/103/11 80/97/11 77/100/11 81/104/11 
f 85/105/37 81/101/37 82/102/37 86/106/37 
f 87/105/38 83/101/38 84/102/38 88/106/38 
f 86/107/39 82/103/39 83/104/39 87/108/39 
f 88/107/40 84/103/40 81/104/40 85/108/40 
f 89/109/8 85/105/8 86/106/8 90/110/8 
f 91/111/41 89/109/41 90/110/41 92/112/41 
f 93/111/42 94/109/42 95/110/42 96/112/42 
f 92/113/43 90/114/43 94/115/43 93/116/43 
f 96/113/44 95/114/44 89/115/44 91/116/44 
f 97/117/8 91/111/8 92/112/8 98/118/8 
f 99/117/10 93/111/10 96/112/10 100/118/10 
f 98/119/45 92/113/45 93/116/45 99/120/45 
f 100/119/11 96/113/11 91/116/11 97/120/11 
f 101/121/9 97/117/9 98/118/9 102/122/9 
f 103/121/9 99/117/9 100/118/9 104/122/9 
f 102/123/9 98/119/9 99/120/9 103/124/9 
f 104/123/9 100/119/9 97/120/9 101/124/9 
f 105/125/8 101/121/8 102/122/8 106/126/8 
f 107/125/10 103/121/10 104/122/10 108/126/10 
f 106/127/12 102/123/12 103/124/12 107/128/12 
f 108/127/11 104/123/11 101/124/11 105/128/11 
f 109/129/9 73/130/9 74/131/9 110/132/9 
f 111/133/9 75/134/9 76/135/9 112/136/9 
f 112/137/9 76/138/9 73/139/9 109/140/9 
f 110/141/9 74/142/9 75/143/9 111/144/9 
f 113/145/46 109/129/46 110/132/46 114/146/46 
f 115/147/47 111/133/47 112/136/47 116/148/47 
f 116/148/48 112/137/48 109/140/48 113/145/48 
f 114/146/49 110/141/49 111/144/49 115/147/49 
f 113/145/9 114/146/9 115/147/9 116/148/9 
f 117/149/12 41/58/12 38/59/12 118/150/12 
f 118/150/12 38/59/12 37/60/12 119/151/12 
f 119/151/12 37/60/12 42/57/12 120/152/12 
f 120/152/12 42/57/12 41/58/12 117/149/12 
f 117/149/50 118/150/50 121/153/50 122/154/50 
f 118/150/51 119/151/51 123/155/51 121/153/51 
f 119/151/52 120/152/52 124/156/52 123/155/52 
f 120/152/53 117/149/53 122/154/53 124/156/53 
f 85/108/11 89/115/11 95/114/11 88/107/11 
f 88/106/10 95/110/10 94/109/10 87/105/10 
f 87/108/12 94/115/12 90/114/12 86/107/12 
f 125/157/54 126/158/54 127/159/54 128/160/54 
s 91
f 128/160/55 124/156/56 122/154/57 125/157/58 
f 129/161/59 123/155/60 124/156/56 128/160/55 
s off
f 129/161/61 128/160/61 127/159/61 130/162/61 
s 91
f 131/163/62 121/153/63 123/155/60 129/161/59 
s off
f 131/163/64 129/161/64 130/162/64 132/164/64 
s 91
f 125/157/58 122/154/57 121/153/63 131/163/62 
s off
f 125/157/9 131/163/9 132/164/9 126/158/9 
# 102 polygons

