# 3ds Max Wavefront OBJ Exporter v0.97b - (c)2007 guruware
# 创建的文件:06.12.2011 17:36:43

mtllib 002.mtl

#
# object lgt_plt_0001_ms_001_045
#

v  -2733.1331 0.9713 -1836.5436
v  -2720.3848 4.2093 -1757.0614
v  -2711.0862 60.6356 -1760.8516
v  -2723.8345 57.3975 -1840.3337
v  -2763.7202 5.4648 -1796.7596
v  -2694.1655 3.0812 -1756.1776
v  -2681.9204 56.1420 -1774.0482
v  -2751.4749 58.5257 -1814.6304
v  -2772.0574 6.0620 -1852.8799
v  -2702.1624 6.9040 -1812.8248
v  -2717.6729 55.5449 -1786.7819
v  -2787.5679 54.7029 -1826.8368
v  -2753.6741 1.2054 -1856.1016
v  -2724.2793 1.8837 -1781.0955
v  -2741.8232 56.0703 -1774.7100
v  -2771.2180 55.3920 -1849.7161
v  -2855.1675 3.4329 -1838.4822
v  -2787.2039 3.0412 -1864.6102
v  -2792.2896 52.6611 -1878.5828
v  -2860.2532 53.0529 -1852.4548
v  -2840.6729 4.4775 -1833.2612
v  -2800.9324 4.5960 -1894.2739
v  -2782.7639 51.6165 -1882.3485
v  -2822.5044 51.4980 -1821.3359
v  -2867.0081 1.9450 -1810.9476
v  -2826.4741 3.2720 -1871.4219
v  -2818.9412 54.1490 -1865.2563
v  -2859.4749 52.8220 -1804.7821
v  -2869.8347 4.0780 -1813.7742
v  -2801.8604 3.5933 -1839.8726
v  -2808.1526 52.0160 -1857.1605
v  -2876.1270 52.5008 -1831.0623
v  -2829.3958 3.5749 -1834.8882
v  -2771.0139 2.2821 -1820.7461
v  -2772.8406 43.4632 -1809.4397
v  -2831.2227 44.7561 -1823.5819
v  -2819.7852 2.9250 -1800.1417
v  -2763.3242 2.9250 -1820.6918
v  -2767.2329 44.1132 -1831.4304
v  -2823.6936 44.1132 -1810.8804
v  -2854.4360 3.2258 -1814.0844
v  -2797.9753 3.2258 -1834.6344
v  -2793.3892 43.8124 -1822.0344
v  -2849.8501 43.8124 -1801.4844
v  -2849.6396 3.7755 -1829.7356
v  -2791.8452 3.1601 -1813.3169
v  -2795.4912 43.2627 -1798.9800
v  -2853.2856 43.8781 -1815.3987
v  -2778.9084 0.5443 -1809.9586
v  -2746.1177 6.4226 -1774.3503
v  -2755.9243 39.5049 -1770.7810
v  -2788.7151 33.6265 -1806.3893
v  -2786.9780 4.7740 -1784.6534
v  -2739.2561 2.5387 -1774.8900
v  -2735.5039 35.2752 -1785.7341
v  -2783.2261 37.5105 -1795.4976
v  -2808.8105 2.8174 -1795.6985
v  -2760.9580 3.5345 -1786.3533
v  -2763.0203 37.2318 -1778.3789
v  -2810.8728 36.5147 -1787.7241
v  -2798.4744 2.6977 -1804.2500
v  -2764.7744 3.6559 -1769.0204
v  -2771.1697 37.3515 -1763.8193
v  -2804.8696 36.3933 -1799.0488
v  -2849.1416 2.7775 -1774.7584
v  -2795.1963 3.2168 -1792.8314
v  -2799.1665 41.9909 -1803.7393
v  -2853.1116 41.5517 -1785.6661
v  -2827.7744 3.0130 -1762.2653
v  -2794.0469 2.5181 -1808.0815
v  -2801.8367 41.7555 -1814.2397
v  -2835.5642 42.2504 -1768.4235
v  -2860.5979 2.2721 -1754.3394
v  -2828.7832 3.9589 -1801.4762
v  -2819.2124 42.4964 -1793.6376
v  -2851.0273 40.8096 -1746.5006
v  -2865.6040 2.9867 -1767.5326
v  -2811.6536 2.6024 -1785.5913
v  -2808.1799 41.7818 -1776.0474
v  -2862.1304 42.1661 -1757.9886
v  -2785.9456 2.6183 -1854.7288
v  -2728.0144 4.4968 -1838.8988
v  -2725.2073 44.4199 -1853.9098
v  -2783.1384 42.5414 -1869.7397
v  -2779.1226 3.9326 -1845.7025
v  -2722.6616 3.9326 -1866.2526
v  -2716.8118 43.1056 -1850.1803
v  -2773.2727 43.1056 -1829.6302
v  -2804.0569 3.4838 -1832.9486
v  -2747.5959 3.4838 -1853.4987
v  -2752.6851 43.5544 -1867.4808
v  -2809.1460 43.5544 -1846.9308
v  -2803.6375 3.8736 -1862.7939
v  -2746.1406 3.4143 -1845.3567
v  -2750.4099 43.1646 -1830.2323
v  -2807.9067 43.6239 -1847.6696
# 96 vertices

vn -0.9740 0.1705 0.1493
vn -0.4571 0.3768 0.8056
vn -0.4172 -0.5288 0.7391
vn -0.8793 -0.3256 0.3475
vn 0.3452 0.2870 0.8936
vn 0.7610 -0.4195 0.4949
vn 0.8179 -0.1870 0.5441
vn 0.3373 0.3551 0.8719
vn -0.2325 -0.2671 0.9352
vn 0.3296 0.2674 0.9055
vn 0.3248 -0.3137 0.8923
vn -0.2598 -0.3459 0.9016
vn -0.6840 -0.2756 0.6754
vn -0.1746 0.3276 0.9285
vn -0.1828 -0.2370 0.9542
vn -0.6988 -0.2368 0.6749
vn 0.3022 0.2867 0.9091
vn 0.7820 0.2452 0.5730
vn 0.7946 -0.3042 0.5254
vn 0.3057 -0.2508 0.9185
vn -0.2571 0.3559 0.8985
vn 0.3134 -0.4001 0.8612
vn 0.3206 0.3481 0.8809
vn -0.2726 -0.3676 0.8891
# 24 vertex normals

vt 0.0000 0.0000 0.0000
vt 1.0000 0.0000 0.0000
vt 1.0000 1.0000 0.0000
vt 0.0000 1.0000 0.0000
# 4 texture coords

g lgt_plt_0001_ms_001_045
usemtl 06___Default
s 1
f 1/1/1 2/2/1 3/3/1 4/4/1 
f 5/1/2 6/2/2 7/3/2 8/4/2 
f 9/1/3 10/2/3 11/3/3 12/4/3 
f 13/1/4 14/2/4 15/3/4 16/4/4 
f 17/1/5 18/2/5 19/3/5 20/4/5 
f 21/1/6 22/2/6 23/3/6 24/4/6 
f 25/1/7 26/2/7 27/3/7 28/4/7 
f 29/1/8 30/2/8 31/3/8 32/4/8 
f 33/1/9 34/2/9 35/3/9 36/4/9 
f 37/1/10 38/2/10 39/3/10 40/4/10 
f 41/1/11 42/2/11 43/3/11 44/4/11 
f 45/1/12 46/2/12 47/3/12 48/4/12 
f 49/1/13 50/2/13 51/3/13 52/4/13 
f 53/1/14 54/2/14 55/3/14 56/4/14 
f 57/1/15 58/2/15 59/3/15 60/4/15 
f 61/1/16 62/2/16 63/3/16 64/4/16 
f 65/1/17 66/2/17 67/3/17 68/4/17 
f 69/1/18 70/2/18 71/3/18 72/4/18 
f 73/1/19 74/2/19 75/3/19 76/4/19 
f 77/1/20 78/2/20 79/3/20 80/4/20 
f 81/1/21 82/2/21 83/3/21 84/4/21 
f 85/1/22 86/2/22 87/3/22 88/4/22 
f 89/1/23 90/2/23 91/3/23 92/4/23 
f 93/1/24 94/2/24 95/3/24 96/4/24 
# 24 polygons

